<?xml version="1.0" encoding="UTF-8" standalone="no"?>
<!-- Created with Inkscape (http://www.inkscape.org/) -->

<svg
   version="1.1"
   id="svg1"
   width="1280"
   height="1099.84"
   viewBox="0 0 1280 1099.84"
   sodipodi:docname="apicula.svg"
   inkscape:version="1.2.2 (b0a8486541, 2022-12-01)"
   inkscape:export-filename="apicula.png"
   inkscape:export-xdpi="96"
   inkscape:export-ydpi="96"
   xmlns:inkscape="http://www.inkscape.org/namespaces/inkscape"
   xmlns:sodipodi="http://sodipodi.sourceforge.net/DTD/sodipodi-0.dtd"
   xmlns="http://www.w3.org/2000/svg"
   xmlns:svg="http://www.w3.org/2000/svg">
  <defs
     id="defs1">
    <clipPath
       clipPathUnits="userSpaceOnUse"
       id="clipPath29">
      <path
         style="fill:#000000;fill-opacity:1"
         d="M 590.37359,306.4236 C 700.02791,439.72277 825.25294,534.30831 786.00833,787.2761 766.03079,916.04987 688.5585,956.92597 582.14253,956.82875 475.72657,956.73153 436.62898,860.96941 406.79134,813.03966 376.95369,765.1099 279.79768,569.89114 256.42728,534.98897 233.96026,501.43594 172.35281,411.81065 172.35281,411.81065 c 0,0 -57.32345,-81.76244 -36.89278,-139.80309 20.43067,-58.04064 42.23905,-79.27277 116.41078,-82.15132 C 396.2995,184.25106 516.4263,216.531 590.37359,306.4236 Z"
         id="path30"
         sodipodi:nodetypes="ssssscsss" />
    </clipPath>
    <clipPath
       clipPathUnits="userSpaceOnUse"
       id="clipPath30">
      <path
         style="fill:#000000;fill-opacity:1"
         d="M 590.37359,306.4236 C 700.02791,439.72277 825.25294,534.30831 786.00833,787.2761 766.03079,916.04987 688.5585,956.92597 582.14253,956.82875 475.72657,956.73153 436.62898,860.96941 406.79134,813.03966 376.95369,765.1099 279.79768,569.89114 256.42728,534.98897 233.96026,501.43594 172.35281,411.81065 172.35281,411.81065 c 0,0 -57.32345,-81.76244 -36.89278,-139.80309 20.43067,-58.04064 42.23905,-79.27277 116.41078,-82.15132 C 396.2995,184.25106 516.4263,216.531 590.37359,306.4236 Z"
         id="path31"
         sodipodi:nodetypes="ssssscsss" />
    </clipPath>
    <clipPath
       clipPathUnits="userSpaceOnUse"
       id="clipPath31">
      <path
         style="fill:#000000;fill-opacity:1"
         d="M 590.37359,306.4236 C 700.02791,439.72277 825.25294,534.30831 786.00833,787.2761 766.03079,916.04987 688.5585,956.92597 582.14253,956.82875 475.72657,956.73153 436.62898,860.96941 406.79134,813.03966 376.95369,765.1099 279.79768,569.89114 256.42728,534.98897 233.96026,501.43594 172.35281,411.81065 172.35281,411.81065 c 0,0 -57.32345,-81.76244 -36.89278,-139.80309 20.43067,-58.04064 42.23905,-79.27277 116.41078,-82.15132 C 396.2995,184.25106 516.4263,216.531 590.37359,306.4236 Z"
         id="path32"
         sodipodi:nodetypes="ssssscsss" />
    </clipPath>
  </defs>
  <sodipodi:namedview
     id="namedview1"
     pagecolor="#ffffff"
     bordercolor="#000000"
     borderopacity="0.25"
     inkscape:showpageshadow="2"
     inkscape:pageopacity="0.0"
     inkscape:pagecheckerboard="0"
     inkscape:deskcolor="#d1d1d1"
     inkscape:zoom="0.76442936"
     inkscape:cx="-134.74103"
     inkscape:cy="636.42244"
     inkscape:window-width="3440"
     inkscape:window-height="1368"
     inkscape:window-x="0"
     inkscape:window-y="0"
     inkscape:window-maximized="1"
     inkscape:current-layer="g1"
     showgrid="false" />
  <g
     inkscape:groupmode="layer"
     inkscape:label="Image"
     id="g1">
    <path
       style="opacity:0.56594;fill:#5f1e00;fill-opacity:1;stroke:none;stroke-opacity:1"
       d="M 382.41054,367.71535 C 394.42905,362.88933 1043.671,-8.6885886 1131.6197,42.416837 1170.8366,145.54722 1090.0065,261.25256 994.79471,330.92738 896.29473,403.00862 491.74825,476.88832 491.74825,476.88832 Z"
       id="path34"
       sodipodi:nodetypes="ccscc" />
    <path
       style="fill:#636363;fill-opacity:1"
       d="m 281.39702,981.74075 233.1331,-57.57809 -25.57504,-36.36049 -218.66465,61.51981 z"
       id="path6"
       sodipodi:nodetypes="ccccc" />
    <path
       style="fill:#1e1111;fill-opacity:1"
       d="M 590.37359,306.4236 C 700.02791,439.72277 825.25294,534.30831 786.00833,787.2761 766.03079,916.04987 688.5585,956.92597 582.14253,956.82875 475.72657,956.73153 436.62898,860.96941 406.79134,813.03966 376.95369,765.1099 279.79768,569.89114 256.42728,534.98897 233.96026,501.43594 172.35281,411.81065 172.35281,411.81065 c 0,0 -57.32345,-81.76244 -36.89278,-139.80309 20.43067,-58.04064 42.23905,-79.27277 116.41078,-82.15132 C 396.2995,184.25106 516.4263,216.531 590.37359,306.4236 Z"
       id="path7"
       sodipodi:nodetypes="ssssscsss" />
    <path
       style="fill:#636363;fill-opacity:1"
       d="M 132.81041,690.27763 292.14431,589.5297 257.75015,566.58568 115.46642,660.81979 Z"
       id="path4"
       sodipodi:nodetypes="ccccc" />
    <path
       style="fill:#b2b2b2;fill-opacity:1"
       d="M 413.95136,536.34513 270.99615,635.15969 237.46644,586.5159 106.11137,726.39983 84.250358,709.30806 216.431,559.22818 361.75381,457.63657 Z"
       id="path1"
       sodipodi:nodetypes="cccccccc" />
    <path
       style="fill:#636363;fill-opacity:1"
       d="m 218.65261,872.73306 c 3.82161,-1.8472 182.4064,-126.28946 182.4064,-126.28946 L 362.54938,705.31933 193.51846,832.87261 Z"
       id="path5"
       sodipodi:nodetypes="ccccc" />
    <path
       style="fill:#b2b2b2;fill-opacity:1"
       d="m 132.9613,858.63604 18.5199,26.54116 196.01007,-141.69529 23.95715,35.88495 141.29869,-99.43925 -66.23104,-96.28261 -138.86587,102.55559 16.41985,24.6689 z"
       id="path2"
       sodipodi:nodetypes="ccccccccc" />
    <path
       style="fill:#b2b2b2;fill-opacity:1"
       d="m 609.77548,826.26157 c -1.24937,0.24305 -157.36781,93.04329 -157.36781,93.04329 L 264.4953,1005.3424 250.09093,975.4957 436.04102,885.17726 409.43697,839.48359 c 0,0 149.21962,-101.03219 147.30884,-100.1572 -1.91077,0.87499 53.02967,86.93518 53.02967,86.93518 z"
       id="path3"
       sodipodi:nodetypes="ccccccsc" />
    <path
       style="opacity:1;fill:#ffb900;fill-opacity:1;stroke:none;stroke-opacity:1"
       d="m 379.45231,165.93997 c 14.89894,-17.24553 -83.19215,161.969 -74.07948,191.03827 9.11261,29.06907 36.59886,54.24902 69.67009,41.7076 C 408.11415,386.14443 572.14784,246.04965 572.14784,246.04965 520.68972,213.6833 457.02874,167.44857 379.45231,165.93997 Z"
       id="path8"
       sodipodi:nodetypes="csscc"
       clip-path="url(#clipPath31)" />
    <path
       style="opacity:1;fill:#ffc100;fill-opacity:1;stroke:none;stroke-opacity:1"
       d="m 713.10465,359.31155 c -5.43841,1.06943 -202.54298,85.16518 -214.00774,149.23348 -11.46476,64.06831 32.56367,91.20236 64.3787,94.0122 51.73816,4.56939 251.92954,-61.44328 251.92954,-61.44328 z"
       id="path9"
       sodipodi:nodetypes="csscc"
       clip-path="url(#clipPath30)" />
    <path
       style="opacity:1;fill:#ffc100;fill-opacity:1;stroke:none;stroke-opacity:1"
       d="m 876.25623,658.94511 c 0,0 -230.02891,4.47212 -256.48594,56.97122 -26.45703,52.49909 66.87744,264.3425 73.19772,264.14806 6.32028,-0.19445 187.69772,-90.90112 187.69772,-90.90112 l 2.64575,-230.02371 z"
       id="path10"
       clip-path="url(#clipPath29)" />
    <ellipse
       style="opacity:1;fill:#1e1111;fill-opacity:1;stroke:none;stroke-width:1.15169;stroke-opacity:1"
       id="path35"
       transform="matrix(0.77379548,-0.63343551,0.64391446,0.76509749,0,0)"
       ry="102.74037"
       rx="167.82703"
       cy="332.03333"
       cx="-17.013443" />
    <path
       style="opacity:0.56594;fill:#5f1e00;fill-opacity:1;stroke:none;stroke-opacity:1"
       d="m 398.22218,386.51603 c 12.64067,-2.81936 713.41782,-264.53801 791.94662,-199.88529 22.0266,108.11413 -76.4475,209.2284 -181.6716,262.59254 -108.85827,55.20723 -520.02712,62.70721 -520.02712,62.70721 z"
       id="path33"
       sodipodi:nodetypes="ccscc" />
    <g
       id="g50"
       transform="translate(1.7476094,-2.7334561)">
      <ellipse
         style="opacity:1;fill:#000000;fill-opacity:1;fill-rule:nonzero;stroke:#454545;stroke-width:4.58769;stroke-dasharray:none;stroke-opacity:1"
         id="path36"
         cx="-52.193615"
         cy="353.60046"
         rx="75.607162"
         ry="52.893322"
         transform="matrix(0.79686093,-0.60416277,0.76574007,0.64315018,0,0)" />
      <ellipse
         style="opacity:1;fill:#cbcbcb;fill-opacity:1;fill-rule:nonzero;stroke:none;stroke-width:5;stroke-dasharray:none;stroke-opacity:1"
         id="path50"
         cx="267.76755"
         cy="258.34302"
         rx="8.1952591"
         ry="10.962393" />
    </g>
  </g>
</svg>
