<svg xmlns="http://www.w3.org/2000/svg" xmlns:xlink="http://www.w3.org/1999/xlink" xmlns:s="https://github.com/nturley/netlistsvg" width="1493" height="445.3333333333333"><style>svg {
  stroke:#000;
  fill:none;
  background-color: whitesmoke;
}
text {
  fill:#000;
  stroke:none;
  font-size:10.8px;
  font-weight: bold;
  font-family: "Courier New", monospace;
}
line {
    stroke-linecap: round;
}
.nodelabel {
  text-anchor: middle;
}
.inputPortLabel {
  text-anchor: end;
}
.splitjoinBody {
  fill:#000;
}</style><g s:type="sub_odd" transform="translate(995,126.83333333333331)" s:width="30" s:height="40" id="cell_div"><text x="57.5" y="-4" class="nodelabel cell_div" s:attribute="ref">CLKDIV</text><rect width="115" height="77" s:generic="body" fill="#e9e9e9" rx="4" class="cell_div"/><g s:type="generic" transform="translate(61,22)" s:width="30" s:height="40" id="cell__PARAMS"><text x="15" y="-4" class="nodelabel cell__PARAMS" s:attribute="ref">PARAMETERS</text><rect width="30" height="40" s:generic="body" fill="#ffae46" rx="0" class="cell__PARAMS"/><g transform="translate(0,10)" s:x="0" s:y="10" s:pid="in0" id="port__PARAMS~DIV_MODE"><text x="-3" y="-4" class="inputPortLabel cell__PARAMS">DIV_MODE</text></g><g transform="translate(0,30)" s:x="0" s:y="10" s:pid="in0" id="port__PARAMS~GSREN"><text x="-3" y="-4" class="inputPortLabel cell__PARAMS">GSREN</text></g></g><g transform="translate(-1,18.5)" s:x="0" s:y="10" s:pid="in0" id="port_div~CALIB"><text x="-3" y="-4" class="inputPortLabel cell_div">CALIB</text></g><g transform="translate(-1,38)" s:x="0" s:y="10" s:pid="in0" id="port_div~HCLKIN"><text x="-3" y="-4" class="inputPortLabel cell_div">HCLKIN</text></g><g transform="translate(-1,57.5)" s:x="0" s:y="10" s:pid="in0" id="port_div~RESETN"><text x="-3" y="-4" class="inputPortLabel cell_div">RESETN</text></g><g transform="translate(115,38)" s:x="30" s:y="10" s:pid="out0" id="port_div~CLKOUT"><text x="5" y="-4" style="fill:#000; stroke:none" class="cell_div">CLKOUT</text></g></g><g s:type="sub_odd" transform="translate(549,325.3333333333333)" s:width="30" s:height="40" id="cell_div2_muxa"><text x="81.5" y="-4" class="nodelabel cell_div2_muxa" s:attribute="ref">BKOMUX0</text><rect width="163" height="95" s:generic="body" fill="#e9e9e9" rx="4" class="cell_div2_muxa"/><g s:type="mux" transform="translate(131,12)" s:width="20" s:height="40" id="cell_$ternary$HCLK.v:95$3"><s:alias val="$pmux"/><s:alias val="$mux"/><s:alias val="$_MUX_"/><path d="M0,0 L20,10 L20,30 L0,40 Z" fill="#ffffff" class="cell_$ternary$HCLK.v:95$3"/><text x="5" y="32" class="nodelabel cell_$ternary$HCLK.v:95$3" s:attribute="">1</text><text x="5" y="13" class="nodelabel cell_$ternary$HCLK.v:95$3" s:attribute="">0</text><g s:x="0" s:y="10" s:pid="A"/><g s:x="0" s:y="30" s:pid="B"/><g s:x="10" s:y="35" s:pid="S"/><g s:x="20" s:y="20" s:pid="Y"/></g><g s:type="inputExt" transform="translate(12,63)" s:width="30" s:height="20" id="cell_BK0MUX1_OUTSEL"><text x="15" y="-4" class="nodelabel cell_BK0MUX1_OUTSEL" s:attribute="ref">BK0MUX1_OUTSEL</text><s:alias val="$_inputExt_"/><path d="M0,0 L0,20 L15,20 L30,10 L15,0 Z" fill="#8bcaff" class="cell_BK0MUX1_OUTSEL"/><g s:x="30" s:y="10" s:pid="Y"/></g><line x1="0" x2="106" y1="19" y2="19" class="net_3"/><line x1="106" x2="106" y1="19" y2="22" class="net_3"/><line x1="106" x2="131" y1="22" y2="22" class="net_3"/><line x1="0" x2="131" y1="42" y2="42" class="net_2"/><line x1="42" x2="141" y1="73" y2="73" class="net_4"/><line x1="141" x2="141" y1="73" y2="47" class="net_4"/><line x1="151" x2="163" y1="32" y2="32" class="net_5"/><g transform="translate(-1,41.5)" s:x="0" s:y="10" s:pid="in0" id="port_div2_muxa~A"><text x="-3" y="-4" class="inputPortLabel cell_div2_muxa">A</text></g><g transform="translate(-1,18.5)" s:x="0" s:y="10" s:pid="in0" id="port_div2_muxa~B"><text x="-3" y="-4" class="inputPortLabel cell_div2_muxa">B</text></g><g transform="translate(163,31.5)" s:x="30" s:y="10" s:pid="out0" id="port_div2_muxa~OUT"><text x="5" y="-4" style="fill:#000; stroke:none" class="cell_div2_muxa">OUT</text></g></g><g s:type="sub_odd" transform="translate(549,120.33333333333331)" s:width="30" s:height="40" id="cell_div2_muxb"><text x="81.5" y="-4" class="nodelabel cell_div2_muxb" s:attribute="ref">BK1MUX0</text><rect width="163" height="95" s:generic="body" fill="#e9e9e9" rx="4" class="cell_div2_muxb"/><g s:type="mux" transform="translate(131,12)" s:width="20" s:height="40" id="cell_$ternary$HCLK.v:107$4"><s:alias val="$pmux"/><s:alias val="$mux"/><s:alias val="$_MUX_"/><path d="M0,0 L20,10 L20,30 L0,40 Z" fill="#ffffff" class="cell_$ternary$HCLK.v:107$4"/><text x="5" y="32" class="nodelabel cell_$ternary$HCLK.v:107$4" s:attribute="">1</text><text x="5" y="13" class="nodelabel cell_$ternary$HCLK.v:107$4" s:attribute="">0</text><g s:x="0" s:y="10" s:pid="A"/><g s:x="0" s:y="30" s:pid="B"/><g s:x="10" s:y="35" s:pid="S"/><g s:x="20" s:y="20" s:pid="Y"/></g><g s:type="inputExt" transform="translate(12,63)" s:width="30" s:height="20" id="cell_BK1MUX0_OUTSEL"><text x="15" y="-4" class="nodelabel cell_BK1MUX0_OUTSEL" s:attribute="ref">BK1MUX0_OUTSEL</text><s:alias val="$_inputExt_"/><path d="M0,0 L0,20 L15,20 L30,10 L15,0 Z" fill="#8bcaff" class="cell_BK1MUX0_OUTSEL"/><g s:x="30" s:y="10" s:pid="Y"/></g><line x1="0" x2="106" y1="19" y2="19" class="net_3"/><line x1="106" x2="106" y1="19" y2="22" class="net_3"/><line x1="106" x2="131" y1="22" y2="22" class="net_3"/><line x1="0" x2="131" y1="42" y2="42" class="net_2"/><line x1="42" x2="141" y1="73" y2="73" class="net_4"/><line x1="141" x2="141" y1="73" y2="47" class="net_4"/><line x1="151" x2="163" y1="32" y2="32" class="net_5"/><g transform="translate(-1,41.5)" s:x="0" s:y="10" s:pid="in0" id="port_div2_muxb~A"><text x="-3" y="-4" class="inputPortLabel cell_div2_muxb">A</text></g><g transform="translate(-1,18.5)" s:x="0" s:y="10" s:pid="in0" id="port_div2_muxb~B"><text x="-3" y="-4" class="inputPortLabel cell_div2_muxb">B</text></g><g transform="translate(163,31.5)" s:x="30" s:y="10" s:pid="out0" id="port_div2_muxb~OUT"><text x="5" y="-4" style="fill:#000; stroke:none" class="cell_div2_muxb">OUT</text></g></g><g s:type="sub_odd" transform="translate(371,338.8333333333333)" s:width="30" s:height="40" id="cell_div2a"><text x="48.5" y="-4" class="nodelabel cell_div2a" s:attribute="ref">CLKDIV2</text><rect width="97" height="57" s:generic="body" fill="#e9e9e9" rx="4" class="cell_div2a"/><g s:type="generic" transform="translate(37,22)" s:width="30" s:height="40" id="cell__CLKDIV2"><text x="15" y="-4" class="nodelabel cell__CLKDIV2" s:attribute="ref">PARAMETERS</text><rect width="30" height="20" s:generic="body" fill="#ffae46" rx="0" class="cell__CLKDIV2"/><g transform="translate(0,10)" s:x="0" s:y="10" s:pid="in0" id="port__CLKDIV2~NONE"><text x="-3" y="-4" class="inputPortLabel cell__CLKDIV2">NONE</text></g></g><g transform="translate(-1,18.333333333333336)" s:x="0" s:y="10" s:pid="in0" id="port_div2a~HCLKIN"><text x="-3" y="-4" class="inputPortLabel cell_div2a">HCLKIN</text></g><g transform="translate(-1,37.66666666666667)" s:x="0" s:y="10" s:pid="in0" id="port_div2a~RESETN"><text x="-3" y="-4" class="inputPortLabel cell_div2a">RESETN</text></g><g transform="translate(97,28)" s:x="30" s:y="10" s:pid="out0" id="port_div2a~CLKOUT"><text x="5" y="-4" style="fill:#000; stroke:none" class="cell_div2a">CLKOUT</text></g></g><g s:type="sub_odd" transform="translate(371,133.83333333333331)" s:width="30" s:height="40" id="cell_div2b"><text x="48.5" y="-4" class="nodelabel cell_div2b" s:attribute="ref">CLKDIV2</text><rect width="97" height="57" s:generic="body" fill="#e9e9e9" rx="4" class="cell_div2b"/><g s:type="generic" transform="translate(37,22)" s:width="30" s:height="40" id="cell__CLKDIV2"><text x="15" y="-4" class="nodelabel cell__CLKDIV2" s:attribute="ref">PARAMETERS</text><rect width="30" height="20" s:generic="body" fill="#ffae46" rx="0" class="cell__CLKDIV2"/><g transform="translate(0,10)" s:x="0" s:y="10" s:pid="in0" id="port__CLKDIV2~NONE"><text x="-3" y="-4" class="inputPortLabel cell__CLKDIV2">NONE</text></g></g><g transform="translate(-1,18.333333333333336)" s:x="0" s:y="10" s:pid="in0" id="port_div2b~HCLKIN"><text x="-3" y="-4" class="inputPortLabel cell_div2b">HCLKIN</text></g><g transform="translate(-1,37.66666666666667)" s:x="0" s:y="10" s:pid="in0" id="port_div2b~RESETN"><text x="-3" y="-4" class="inputPortLabel cell_div2b">RESETN</text></g><g transform="translate(97,28)" s:x="30" s:y="10" s:pid="out0" id="port_div2b~CLKOUT"><text x="5" y="-4" style="fill:#000; stroke:none" class="cell_div2b">CLKOUT</text></g></g><g s:type="sub_odd" transform="translate(775,133.33333333333331)" s:width="30" s:height="40" id="cell_div_in_mux"><text x="63.5" y="-4" class="nodelabel cell_div_in_mux" s:attribute="ref">DCS</text><rect width="127" height="95" s:generic="body" fill="#e9e9e9" rx="4" class="cell_div_in_mux"/><g s:type="mux" transform="translate(95,12)" s:width="20" s:height="40" id="cell_$ternary$HCLK.v:117$5"><s:alias val="$pmux"/><s:alias val="$mux"/><s:alias val="$_MUX_"/><path d="M0,0 L20,10 L20,30 L0,40 Z" fill="#ffffff" class="cell_$ternary$HCLK.v:117$5"/><text x="5" y="32" class="nodelabel cell_$ternary$HCLK.v:117$5" s:attribute="">1</text><text x="5" y="13" class="nodelabel cell_$ternary$HCLK.v:117$5" s:attribute="">0</text><g s:x="0" s:y="10" s:pid="A"/><g s:x="0" s:y="30" s:pid="B"/><g s:x="10" s:y="35" s:pid="S"/><g s:x="20" s:y="20" s:pid="Y"/></g><g s:type="inputExt" transform="translate(12,63)" s:width="30" s:height="20" id="cell_DCS0_SEL"><text x="15" y="-4" class="nodelabel cell_DCS0_SEL" s:attribute="ref">DCS0_SEL</text><s:alias val="$_inputExt_"/><path d="M0,0 L0,20 L15,20 L30,10 L15,0 Z" fill="#8bcaff" class="cell_DCS0_SEL"/><g s:x="30" s:y="10" s:pid="Y"/></g><line x1="0" x2="70" y1="19" y2="19" class="net_3"/><line x1="70" x2="70" y1="19" y2="22" class="net_3"/><line x1="70" x2="95" y1="22" y2="22" class="net_3"/><line x1="0" x2="95" y1="42" y2="42" class="net_2"/><line x1="42" x2="105" y1="73" y2="73" class="net_4"/><line x1="105" x2="105" y1="73" y2="47" class="net_4"/><line x1="115" x2="127" y1="32" y2="32" class="net_5"/><g transform="translate(-1,41.5)" s:x="0" s:y="10" s:pid="in0" id="port_div_in_mux~A"><text x="-3" y="-4" class="inputPortLabel cell_div_in_mux">A</text></g><g transform="translate(-1,18.5)" s:x="0" s:y="10" s:pid="in0" id="port_div_in_mux~B"><text x="-3" y="-4" class="inputPortLabel cell_div_in_mux">B</text></g><g transform="translate(127,31.5)" s:x="30" s:y="10" s:pid="out0" id="port_div_in_mux~OUT"><text x="5" y="-4" style="fill:#000; stroke:none" class="cell_div_in_mux">OUT</text></g></g><g s:type="sub_odd" transform="translate(1191,338.3333333333333)" s:width="30" s:height="40" id="cell_hclk_out1_mux"><text x="60.5" y="-4" class="nodelabel cell_hclk_out1_mux" s:attribute="ref">NOT_DCS</text><rect width="121" height="95" s:generic="body" fill="#e9e9e9" rx="4" class="cell_hclk_out1_mux"/><g s:type="mux" transform="translate(89,12)" s:width="20" s:height="40" id="cell_$ternary$HCLK.v:129$6"><s:alias val="$pmux"/><s:alias val="$mux"/><s:alias val="$_MUX_"/><path d="M0,0 L20,10 L20,30 L0,40 Z" fill="#ffffff" class="cell_$ternary$HCLK.v:129$6"/><text x="5" y="32" class="nodelabel cell_$ternary$HCLK.v:129$6" s:attribute="">1</text><text x="5" y="13" class="nodelabel cell_$ternary$HCLK.v:129$6" s:attribute="">0</text><g s:x="0" s:y="10" s:pid="A"/><g s:x="0" s:y="30" s:pid="B"/><g s:x="10" s:y="35" s:pid="S"/><g s:x="20" s:y="20" s:pid="Y"/></g><g s:type="inputExt" transform="translate(12,63)" s:width="30" s:height="20" id="cell_NOT_DCS"><text x="15" y="-4" class="nodelabel cell_NOT_DCS" s:attribute="ref">NOT_DCS</text><s:alias val="$_inputExt_"/><path d="M0,0 L0,20 L15,20 L30,10 L15,0 Z" fill="#8bcaff" class="cell_NOT_DCS"/><g s:x="30" s:y="10" s:pid="Y"/></g><line x1="0" x2="64" y1="19" y2="19" class="net_3"/><line x1="64" x2="64" y1="19" y2="22" class="net_3"/><line x1="64" x2="89" y1="22" y2="22" class="net_3"/><line x1="0" x2="89" y1="42" y2="42" class="net_2"/><line x1="42" x2="99" y1="73" y2="73" class="net_4"/><line x1="99" x2="99" y1="73" y2="47" class="net_4"/><line x1="109" x2="121" y1="32" y2="32" class="net_5"/><g transform="translate(-1,41.5)" s:x="0" s:y="10" s:pid="in0" id="port_hclk_out1_mux~A"><text x="-3" y="-4" class="inputPortLabel cell_hclk_out1_mux">A</text></g><g transform="translate(-1,18.5)" s:x="0" s:y="10" s:pid="in0" id="port_hclk_out1_mux~B"><text x="-3" y="-4" class="inputPortLabel cell_hclk_out1_mux">B</text></g><g transform="translate(121,31.5)" s:x="30" s:y="10" s:pid="out0" id="port_hclk_out1_mux~OUT"><text x="5" y="-4" style="fill:#000; stroke:none" class="cell_hclk_out1_mux">OUT</text></g></g><g s:type="sub_odd" transform="translate(1191,28.333333333333314)" s:width="30" s:height="40" id="cell_hclk_out2_mux"><text x="60.5" y="-4" class="nodelabel cell_hclk_out2_mux" s:attribute="ref">NOT_DCS</text><rect width="121" height="95" s:generic="body" fill="#e9e9e9" rx="4" class="cell_hclk_out2_mux"/><g s:type="mux" transform="translate(89,12)" s:width="20" s:height="40" id="cell_$ternary$HCLK.v:129$6"><s:alias val="$pmux"/><s:alias val="$mux"/><s:alias val="$_MUX_"/><path d="M0,0 L20,10 L20,30 L0,40 Z" fill="#ffffff" class="cell_$ternary$HCLK.v:129$6"/><text x="5" y="32" class="nodelabel cell_$ternary$HCLK.v:129$6" s:attribute="">1</text><text x="5" y="13" class="nodelabel cell_$ternary$HCLK.v:129$6" s:attribute="">0</text><g s:x="0" s:y="10" s:pid="A"/><g s:x="0" s:y="30" s:pid="B"/><g s:x="10" s:y="35" s:pid="S"/><g s:x="20" s:y="20" s:pid="Y"/></g><g s:type="inputExt" transform="translate(12,63)" s:width="30" s:height="20" id="cell_NOT_DCS"><text x="15" y="-4" class="nodelabel cell_NOT_DCS" s:attribute="ref">NOT_DCS</text><s:alias val="$_inputExt_"/><path d="M0,0 L0,20 L15,20 L30,10 L15,0 Z" fill="#8bcaff" class="cell_NOT_DCS"/><g s:x="30" s:y="10" s:pid="Y"/></g><line x1="0" x2="64" y1="19" y2="19" class="net_3"/><line x1="64" x2="64" y1="19" y2="22" class="net_3"/><line x1="64" x2="89" y1="22" y2="22" class="net_3"/><line x1="0" x2="89" y1="42" y2="42" class="net_2"/><line x1="42" x2="99" y1="73" y2="73" class="net_4"/><line x1="99" x2="99" y1="73" y2="47" class="net_4"/><line x1="109" x2="121" y1="32" y2="32" class="net_5"/><g transform="translate(-1,41.5)" s:x="0" s:y="10" s:pid="in0" id="port_hclk_out2_mux~A"><text x="-3" y="-4" class="inputPortLabel cell_hclk_out2_mux">A</text></g><g transform="translate(-1,18.5)" s:x="0" s:y="10" s:pid="in0" id="port_hclk_out2_mux~B"><text x="-3" y="-4" class="inputPortLabel cell_hclk_out2_mux">B</text></g><g transform="translate(121,31.5)" s:x="30" s:y="10" s:pid="out0" id="port_hclk_out2_mux~OUT"><text x="5" y="-4" style="fill:#000; stroke:none" class="cell_hclk_out2_mux">OUT</text></g></g><g s:type="sub_odd" transform="translate(103,227)" s:width="30" s:height="40" id="cell_sect0_in"><text x="54.5" y="-4" class="nodelabel cell_sect0_in" s:attribute="ref">PIP1</text><rect width="109" height="95" s:generic="body" fill="#e9e9e9" rx="4" class="cell_sect0_in"/><g s:type="mux" transform="translate(77,12)" s:width="20" s:height="40" id="cell_$ternary$HCLK.v:71$1"><s:alias val="$pmux"/><s:alias val="$mux"/><s:alias val="$_MUX_"/><path d="M0,0 L20,10 L20,30 L0,40 Z" fill="#ffffff" class="cell_$ternary$HCLK.v:71$1"/><text x="5" y="32" class="nodelabel cell_$ternary$HCLK.v:71$1" s:attribute="">1</text><text x="5" y="13" class="nodelabel cell_$ternary$HCLK.v:71$1" s:attribute="">0</text><g s:x="0" s:y="10" s:pid="A"/><g s:x="0" s:y="30" s:pid="B"/><g s:x="10" s:y="35" s:pid="S"/><g s:x="20" s:y="20" s:pid="Y"/></g><g s:type="inputExt" transform="translate(12,63)" s:width="30" s:height="20" id="cell_SEL"><text x="15" y="-4" class="nodelabel cell_SEL" s:attribute="ref">SEL</text><s:alias val="$_inputExt_"/><path d="M0,0 L0,20 L15,20 L30,10 L15,0 Z" fill="#8bcaff" class="cell_SEL"/><g s:x="30" s:y="10" s:pid="Y"/></g><line x1="0" x2="52" y1="19" y2="19" class="net_3"/><line x1="52" x2="52" y1="19" y2="22" class="net_3"/><line x1="52" x2="77" y1="22" y2="22" class="net_3"/><line x1="0" x2="77" y1="42" y2="42" class="net_2"/><line x1="42" x2="87" y1="73" y2="73" class="net_4"/><line x1="87" x2="87" y1="73" y2="47" class="net_4"/><line x1="97" x2="109" y1="32" y2="32" class="net_5"/><g transform="translate(-1,41.5)" s:x="0" s:y="10" s:pid="in0" id="port_sect0_in~A"><text x="-3" y="-4" class="inputPortLabel cell_sect0_in">A</text></g><g transform="translate(-1,18.5)" s:x="0" s:y="10" s:pid="in0" id="port_sect0_in~B"><text x="-3" y="-4" class="inputPortLabel cell_sect0_in">B</text></g><g transform="translate(109,31.5)" s:x="30" s:y="10" s:pid="out0" id="port_sect0_in~HCLK0_SECT0_IN"><text x="5" y="-4" style="fill:#000; stroke:none" class="cell_sect0_in">HCLK0_SECT0_IN</text></g></g><g s:type="sub_odd" transform="translate(103,22)" s:width="30" s:height="40" id="cell_sect1_in"><text x="54.5" y="-4" class="nodelabel cell_sect1_in" s:attribute="ref">PIP2</text><rect width="109" height="95" s:generic="body" fill="#e9e9e9" rx="4" class="cell_sect1_in"/><g s:type="mux" transform="translate(77,12)" s:width="20" s:height="40" id="cell_$ternary$HCLK.v:83$2"><s:alias val="$pmux"/><s:alias val="$mux"/><s:alias val="$_MUX_"/><path d="M0,0 L20,10 L20,30 L0,40 Z" fill="#ffffff" class="cell_$ternary$HCLK.v:83$2"/><text x="5" y="32" class="nodelabel cell_$ternary$HCLK.v:83$2" s:attribute="">1</text><text x="5" y="13" class="nodelabel cell_$ternary$HCLK.v:83$2" s:attribute="">0</text><g s:x="0" s:y="10" s:pid="A"/><g s:x="0" s:y="30" s:pid="B"/><g s:x="10" s:y="35" s:pid="S"/><g s:x="20" s:y="20" s:pid="Y"/></g><g s:type="inputExt" transform="translate(12,63)" s:width="30" s:height="20" id="cell_SEL"><text x="15" y="-4" class="nodelabel cell_SEL" s:attribute="ref">SEL</text><s:alias val="$_inputExt_"/><path d="M0,0 L0,20 L15,20 L30,10 L15,0 Z" fill="#8bcaff" class="cell_SEL"/><g s:x="30" s:y="10" s:pid="Y"/></g><line x1="0" x2="52" y1="19" y2="19" class="net_3"/><line x1="52" x2="52" y1="19" y2="22" class="net_3"/><line x1="52" x2="77" y1="22" y2="22" class="net_3"/><line x1="0" x2="77" y1="42" y2="42" class="net_2"/><line x1="42" x2="87" y1="73" y2="73" class="net_4"/><line x1="87" x2="87" y1="73" y2="47" class="net_4"/><line x1="97" x2="109" y1="32" y2="32" class="net_5"/><g transform="translate(-1,41.5)" s:x="0" s:y="10" s:pid="in0" id="port_sect1_in~A"><text x="-3" y="-4" class="inputPortLabel cell_sect1_in">A</text></g><g transform="translate(-1,18.5)" s:x="0" s:y="10" s:pid="in0" id="port_sect1_in~B"><text x="-3" y="-4" class="inputPortLabel cell_sect1_in">B</text></g><g transform="translate(109,31.5)" s:x="30" s:y="10" s:pid="out0" id="port_sect1_in~HCLK0_SECT1_IN"><text x="5" y="-4" style="fill:#000; stroke:none" class="cell_sect1_in">HCLK0_SECT1_IN</text></g></g><g s:type="inputExt" transform="translate(844,68.33333333333331)" s:width="30" s:height="20" id="cell_CLKDIV_CALIB"><text x="15" y="-4" class="nodelabel cell_CLKDIV_CALIB" s:attribute="ref">CLKDIV_CALIB</text><s:alias val="$_inputExt_"/><path d="M0,0 L0,20 L15,20 L30,10 L15,0 Z" fill="#8bcaff" class="cell_CLKDIV_CALIB"/><g s:x="30" s:y="10" s:pid="Y"/></g><g s:type="inputExt" transform="translate(844,273.3333333333333)" s:width="30" s:height="20" id="cell_CLKDIV_RESETN"><text x="15" y="-4" class="nodelabel cell_CLKDIV_RESETN" s:attribute="ref">CLKDIV_RESETN</text><s:alias val="$_inputExt_"/><path d="M0,0 L0,20 L15,20 L30,10 L15,0 Z" fill="#8bcaff" class="cell_CLKDIV_RESETN"/><g s:x="30" s:y="10" s:pid="Y"/></g><g s:type="inputExt" transform="translate(182,367)" s:width="30" s:height="20" id="cell_CLKDIV2A_RESETN"><text x="15" y="-4" class="nodelabel cell_CLKDIV2A_RESETN" s:attribute="ref">CLKDIV2A_RESETN</text><s:alias val="$_inputExt_"/><path d="M0,0 L0,20 L15,20 L30,10 L15,0 Z" fill="#8bcaff" class="cell_CLKDIV2A_RESETN"/><g s:x="30" s:y="10" s:pid="Y"/></g><g s:type="inputExt" transform="translate(182,162)" s:width="30" s:height="20" id="cell_CLKDIV2B_RESETN"><text x="15" y="-4" class="nodelabel cell_CLKDIV2B_RESETN" s:attribute="ref">CLKDIV2B_RESETN</text><s:alias val="$_inputExt_"/><path d="M0,0 L0,20 L15,20 L30,10 L15,0 Z" fill="#8bcaff" class="cell_CLKDIV2B_RESETN"/><g s:x="30" s:y="10" s:pid="Y"/></g><g s:type="inputExt" transform="translate(12,31)" s:width="30" s:height="20" id="cell_HCLK_IN0"><text x="15" y="-4" class="nodelabel cell_HCLK_IN0" s:attribute="ref">HCLK_IN0</text><s:alias val="$_inputExt_"/><path d="M0,0 L0,20 L15,20 L30,10 L15,0 Z" fill="#8bcaff" class="cell_HCLK_IN0"/><g s:x="30" s:y="10" s:pid="Y"/></g><g s:type="inputExt" transform="translate(12,236)" s:width="30" s:height="20" id="cell_HCLK_IN1"><text x="15" y="-4" class="nodelabel cell_HCLK_IN1" s:attribute="ref">HCLK_IN1</text><s:alias val="$_inputExt_"/><path d="M0,0 L0,20 L15,20 L30,10 L15,0 Z" fill="#8bcaff" class="cell_HCLK_IN1"/><g s:x="30" s:y="10" s:pid="Y"/></g><g s:type="outputExt" transform="translate(1367,360.3333333333333)" s:width="30" s:height="20" id="cell_HCLK_OUT0"><text x="15" y="-4" class="nodelabel cell_HCLK_OUT0" s:attribute="ref">HCLK_OUT0</text><s:alias val="$_outputExt_"/><path d="M30,0 L30,20 L15,20 L0,10 L15,0 Z" fill="#169300" class="cell_HCLK_OUT0"/><g s:x="0" s:y="10" s:pid="A"/></g><g s:type="outputExt" transform="translate(1367,50.333333333333314)" s:width="30" s:height="20" id="cell_HCLK_OUT1"><text x="15" y="-4" class="nodelabel cell_HCLK_OUT1" s:attribute="ref">HCLK_OUT1</text><s:alias val="$_outputExt_"/><path d="M30,0 L30,20 L15,20 L0,10 L15,0 Z" fill="#169300" class="cell_HCLK_OUT1"/><g s:x="0" s:y="10" s:pid="A"/></g><g s:type="outputExt" transform="translate(1367,155.33333333333331)" s:width="30" s:height="20" id="cell_HCLK0_CLKDIV_CLKOUT"><text x="15" y="-4" class="nodelabel cell_HCLK0_CLKDIV_CLKOUT" s:attribute="ref">HCLK0_CLKDIV_CLKOUT</text><s:alias val="$_outputExt_"/><path d="M30,0 L30,20 L15,20 L0,10 L15,0 Z" fill="#169300" class="cell_HCLK0_CLKDIV_CLKOUT"/><g s:x="0" s:y="10" s:pid="A"/></g><line x1="874" x2="932" y1="78.33333333333331" y2="78.33333333333331" class="net_2 width_1" style="stroke-width: 1"/><line x1="932" x2="932" y1="78.33333333333331" y2="145.83333333333331" class="net_2 width_1" style="stroke-width: 1"/><line x1="932" x2="994" y1="145.83333333333331" y2="145.83333333333331" class="net_2 width_1" style="stroke-width: 1"/><line x1="903" x2="994" y1="165.33333333333331" y2="165.33333333333331" class="net_11 width_1" style="stroke-width: 1"/><line x1="874" x2="932" y1="283.3333333333333" y2="283.3333333333333" class="net_3 width_1" style="stroke-width: 1"/><line x1="932" x2="932" y1="283.3333333333333" y2="184.83333333333331" class="net_3 width_1" style="stroke-width: 1"/><line x1="932" x2="994" y1="184.83333333333331" y2="184.83333333333331" class="net_3 width_1" style="stroke-width: 1"/><line x1="469" x2="548" y1="367.3333333333333" y2="367.3333333333333" class="net_12 width_1" style="stroke-width: 1"/><line x1="213" x2="516" y1="259" y2="259" class="net_13 width_1" style="stroke-width: 1"/><line x1="516" x2="516" y1="259" y2="344.3333333333333" class="net_13 width_1" style="stroke-width: 1"/><line x1="516" x2="548" y1="344.3333333333333" y2="344.3333333333333" class="net_13 width_1" style="stroke-width: 1"/><line x1="213" x2="308" y1="259" y2="259" class="net_13 width_1" style="stroke-width: 1"/><line x1="308" x2="308" y1="259" y2="357.66666666666663" class="net_13 width_1" style="stroke-width: 1"/><circle cx="308" cy="259" r="2" style="fill:#000" class="net_13 width_1"/><line x1="308" x2="370" y1="357.66666666666663" y2="357.66666666666663" class="net_13 width_1" style="stroke-width: 1"/><line x1="469" x2="548" y1="162.33333333333331" y2="162.33333333333331" class="net_15 width_1" style="stroke-width: 1"/><line x1="213" x2="516" y1="54" y2="54" class="net_16 width_1" style="stroke-width: 1"/><line x1="516" x2="516" y1="54" y2="139.33333333333331" class="net_16 width_1" style="stroke-width: 1"/><line x1="516" x2="548" y1="139.33333333333331" y2="139.33333333333331" class="net_16 width_1" style="stroke-width: 1"/><line x1="213" x2="308" y1="54" y2="54" class="net_16 width_1" style="stroke-width: 1"/><line x1="308" x2="308" y1="54" y2="152.66666666666666" class="net_16 width_1" style="stroke-width: 1"/><circle cx="308" cy="54" r="2" style="fill:#000" class="net_16 width_1"/><line x1="308" x2="370" y1="152.66666666666666" y2="152.66666666666666" class="net_16 width_1" style="stroke-width: 1"/><line x1="212" x2="370" y1="377" y2="377" class="net_4 width_1" style="stroke-width: 1"/><line x1="212" x2="370" y1="172" y2="172" class="net_5 width_1" style="stroke-width: 1"/><line x1="713" x2="742" y1="357.3333333333333" y2="357.3333333333333" class="net_14 width_1" style="stroke-width: 1"/><line x1="742" x2="742" y1="357.3333333333333" y2="175.33333333333331" class="net_14 width_1" style="stroke-width: 1"/><circle cx="742" cy="357.3333333333333" r="2" style="fill:#000" class="net_14 width_1"/><line x1="742" x2="774" y1="175.33333333333331" y2="175.33333333333331" class="net_14 width_1" style="stroke-width: 1"/><line x1="713" x2="1190" y1="357.3333333333333" y2="357.3333333333333" class="net_14 width_1" style="stroke-width: 1"/><line x1="713" x2="774" y1="152.33333333333331" y2="152.33333333333331" class="net_17 width_1" style="stroke-width: 1"/><line x1="713" x2="742" y1="152.33333333333331" y2="152.33333333333331" class="net_17 width_1" style="stroke-width: 1"/><line x1="742" x2="742" y1="152.33333333333331" y2="47.333333333333314" class="net_17 width_1" style="stroke-width: 1"/><circle cx="742" cy="152.33333333333331" r="2" style="fill:#000" class="net_17 width_1"/><line x1="742" x2="1190" y1="47.333333333333314" y2="47.333333333333314" class="net_17 width_1" style="stroke-width: 1"/><line x1="1111" x2="1158" y1="165.33333333333331" y2="165.33333333333331" class="net_10 width_1" style="stroke-width: 1"/><line x1="1158" x2="1158" y1="165.33333333333331" y2="380.3333333333333" class="net_10 width_1" style="stroke-width: 1"/><circle cx="1158" cy="165.33333333333331" r="2" style="fill:#000" class="net_10 width_1"/><line x1="1158" x2="1190" y1="380.3333333333333" y2="380.3333333333333" class="net_10 width_1" style="stroke-width: 1"/><line x1="1111" x2="1158" y1="165.33333333333331" y2="165.33333333333331" class="net_10 width_1" style="stroke-width: 1"/><line x1="1158" x2="1158" y1="165.33333333333331" y2="70.33333333333331" class="net_10 width_1" style="stroke-width: 1"/><line x1="1158" x2="1190" y1="70.33333333333331" y2="70.33333333333331" class="net_10 width_1" style="stroke-width: 1"/><line x1="1111" x2="1367" y1="165.33333333333331" y2="165.33333333333331" class="net_10 width_1" style="stroke-width: 1"/><line x1="42" x2="70" y1="41" y2="41" class="net_6 width_1" style="stroke-width: 1"/><line x1="70" x2="70" y1="41" y2="269" class="net_6 width_1" style="stroke-width: 1"/><circle cx="70" cy="41" r="2" style="fill:#000" class="net_6 width_1"/><line x1="70" x2="102" y1="269" y2="269" class="net_6 width_1" style="stroke-width: 1"/><line x1="42" x2="102" y1="41" y2="41" class="net_6 width_1" style="stroke-width: 1"/><line x1="42" x2="102" y1="246" y2="246" class="net_7 width_1" style="stroke-width: 1"/><line x1="42" x2="80" y1="246" y2="246" class="net_7 width_1" style="stroke-width: 1"/><line x1="80" x2="80" y1="246" y2="64" class="net_7 width_1" style="stroke-width: 1"/><circle cx="80" cy="246" r="2" style="fill:#000" class="net_7 width_1"/><line x1="80" x2="102" y1="64" y2="64" class="net_7 width_1" style="stroke-width: 1"/><line x1="1313" x2="1367" y1="370.3333333333333" y2="370.3333333333333" class="net_8 width_1" style="stroke-width: 1"/><line x1="1313" x2="1367" y1="60.333333333333314" y2="60.333333333333314" class="net_9 width_1" style="stroke-width: 1"/></svg>